<mxfile host="app.diagrams.net" agent="Mozilla/5.0 (X11; Linux x86_64; rv:130.0) Gecko/20100101 Firefox/130.0" version="24.7.13">
  <diagram name="Page-1" id="ckP5UxTL88q22UnhCIZ1">
    <mxGraphModel dx="2411" dy="1151" grid="1" gridSize="5" guides="1" tooltips="1" connect="1" arrows="1" fold="1" page="1" pageScale="5" pageWidth="1600" pageHeight="1200" math="0" shadow="0">
      <root>
        <mxCell id="0" />
        <mxCell id="1" parent="0" />
        <mxCell id="AQTAdp-zQ0He3gd8Ozk--1" value="" style="ellipse;whiteSpace=wrap;html=1;strokeWidth=3;" vertex="1" parent="1">
          <mxGeometry x="655.25" y="552.9000000000001" width="170" height="100" as="geometry" />
        </mxCell>
        <mxCell id="AQTAdp-zQ0He3gd8Ozk--2" value="&lt;font style=&quot;font-size: 24px;&quot;&gt;GoStraight&lt;/font&gt;" style="text;html=1;align=center;verticalAlign=middle;whiteSpace=wrap;rounded=0;" vertex="1" parent="1">
          <mxGeometry x="710.25" y="587.9000000000001" width="60" height="30" as="geometry" />
        </mxCell>
        <mxCell id="AQTAdp-zQ0He3gd8Ozk--56" value="" style="ellipse;whiteSpace=wrap;html=1;strokeWidth=3;dashed=1;" vertex="1" parent="1">
          <mxGeometry x="110" y="430" width="170" height="100" as="geometry" />
        </mxCell>
        <mxCell id="AQTAdp-zQ0He3gd8Ozk--57" value="&lt;font style=&quot;font-size: 24px;&quot;&gt;Target&lt;/font&gt;" style="text;html=1;align=center;verticalAlign=middle;whiteSpace=wrap;rounded=0;" vertex="1" parent="1">
          <mxGeometry x="165" y="465" width="60" height="30" as="geometry" />
        </mxCell>
        <mxCell id="AQTAdp-zQ0He3gd8Ozk--58" value="" style="endArrow=classic;html=1;rounded=0;entryX=0;entryY=0.5;entryDx=0;entryDy=0;strokeWidth=3;" edge="1" parent="1" source="AQTAdp-zQ0He3gd8Ozk--56" target="AQTAdp-zQ0He3gd8Ozk--61">
          <mxGeometry width="50" height="50" relative="1" as="geometry">
            <mxPoint x="560" y="380" as="sourcePoint" />
            <mxPoint x="610" y="330" as="targetPoint" />
          </mxGeometry>
        </mxCell>
        <mxCell id="AQTAdp-zQ0He3gd8Ozk--61" value="" style="ellipse;whiteSpace=wrap;html=1;strokeWidth=3;dashed=1;" vertex="1" parent="1">
          <mxGeometry x="390" y="430" width="170" height="100" as="geometry" />
        </mxCell>
        <mxCell id="AQTAdp-zQ0He3gd8Ozk--62" value="&lt;font style=&quot;font-size: 24px;&quot;&gt;Look&lt;/font&gt;" style="text;html=1;align=center;verticalAlign=middle;whiteSpace=wrap;rounded=0;" vertex="1" parent="1">
          <mxGeometry x="445" y="465" width="60" height="30" as="geometry" />
        </mxCell>
        <mxCell id="AQTAdp-zQ0He3gd8Ozk--63" value="" style="ellipse;whiteSpace=wrap;html=1;strokeWidth=3;dashed=1;" vertex="1" parent="1">
          <mxGeometry x="655.25" y="310" width="170" height="100" as="geometry" />
        </mxCell>
        <mxCell id="AQTAdp-zQ0He3gd8Ozk--64" value="&lt;font style=&quot;font-size: 24px;&quot;&gt;Spiral&lt;/font&gt;" style="text;html=1;align=center;verticalAlign=middle;whiteSpace=wrap;rounded=0;" vertex="1" parent="1">
          <mxGeometry x="710.25" y="345" width="60" height="30" as="geometry" />
        </mxCell>
        <mxCell id="AQTAdp-zQ0He3gd8Ozk--65" value="" style="ellipse;whiteSpace=wrap;html=1;strokeWidth=3;dashed=1;" vertex="1" parent="1">
          <mxGeometry x="960" y="310" width="170" height="100" as="geometry" />
        </mxCell>
        <mxCell id="AQTAdp-zQ0He3gd8Ozk--66" value="&lt;font style=&quot;font-size: 24px;&quot;&gt;Orient&lt;/font&gt;" style="text;html=1;align=center;verticalAlign=middle;whiteSpace=wrap;rounded=0;" vertex="1" parent="1">
          <mxGeometry x="1015" y="345" width="60" height="30" as="geometry" />
        </mxCell>
        <mxCell id="AQTAdp-zQ0He3gd8Ozk--72" value="" style="endArrow=classic;html=1;rounded=0;exitX=1;exitY=0;exitDx=0;exitDy=0;entryX=0;entryY=0.5;entryDx=0;entryDy=0;strokeWidth=3;" edge="1" parent="1" source="AQTAdp-zQ0He3gd8Ozk--61" target="AQTAdp-zQ0He3gd8Ozk--63">
          <mxGeometry relative="1" as="geometry">
            <mxPoint x="590" y="440" as="sourcePoint" />
            <mxPoint x="690" y="440" as="targetPoint" />
          </mxGeometry>
        </mxCell>
        <mxCell id="AQTAdp-zQ0He3gd8Ozk--73" value="&lt;font style=&quot;font-size: 16px;&quot;&gt;&amp;gt; vision_angle&lt;/font&gt;" style="edgeLabel;resizable=0;html=1;;align=center;verticalAlign=middle;" connectable="0" vertex="1" parent="AQTAdp-zQ0He3gd8Ozk--72">
          <mxGeometry relative="1" as="geometry">
            <mxPoint as="offset" />
          </mxGeometry>
        </mxCell>
        <mxCell id="AQTAdp-zQ0He3gd8Ozk--79" value="" style="endArrow=classic;html=1;rounded=0;exitX=1;exitY=1;exitDx=0;exitDy=0;entryX=0;entryY=0.5;entryDx=0;entryDy=0;strokeWidth=3;" edge="1" parent="1" source="AQTAdp-zQ0He3gd8Ozk--61" target="AQTAdp-zQ0He3gd8Ozk--1">
          <mxGeometry relative="1" as="geometry">
            <mxPoint x="545" y="455" as="sourcePoint" />
            <mxPoint x="665" y="375" as="targetPoint" />
          </mxGeometry>
        </mxCell>
        <mxCell id="AQTAdp-zQ0He3gd8Ozk--80" value="&lt;font style=&quot;font-size: 16px;&quot;&gt;&amp;lt; vision_angle&lt;/font&gt;" style="edgeLabel;resizable=0;html=1;;align=center;verticalAlign=middle;" connectable="0" vertex="1" parent="AQTAdp-zQ0He3gd8Ozk--79">
          <mxGeometry relative="1" as="geometry">
            <mxPoint as="offset" />
          </mxGeometry>
        </mxCell>
        <mxCell id="AQTAdp-zQ0He3gd8Ozk--81" value="" style="ellipse;whiteSpace=wrap;html=1;strokeWidth=3;dashed=1;" vertex="1" parent="1">
          <mxGeometry x="390" y="670" width="170" height="100" as="geometry" />
        </mxCell>
        <mxCell id="AQTAdp-zQ0He3gd8Ozk--82" value="&lt;font style=&quot;font-size: 24px;&quot;&gt;Reach&lt;/font&gt;" style="text;html=1;align=center;verticalAlign=middle;whiteSpace=wrap;rounded=0;" vertex="1" parent="1">
          <mxGeometry x="445" y="705" width="60" height="30" as="geometry" />
        </mxCell>
        <mxCell id="AQTAdp-zQ0He3gd8Ozk--84" value="" style="endArrow=classic;html=1;rounded=0;entryX=-0.001;entryY=0.571;entryDx=0;entryDy=0;strokeWidth=3;exitX=1;exitY=0;exitDx=0;exitDy=0;entryPerimeter=0;" edge="1" parent="1" source="AQTAdp-zQ0He3gd8Ozk--81" target="AQTAdp-zQ0He3gd8Ozk--1">
          <mxGeometry relative="1" as="geometry">
            <mxPoint x="440" y="610" as="sourcePoint" />
            <mxPoint x="665" y="613" as="targetPoint" />
          </mxGeometry>
        </mxCell>
        <mxCell id="AQTAdp-zQ0He3gd8Ozk--85" value="&lt;font style=&quot;font-size: 16px;&quot;&gt;false&lt;/font&gt;" style="edgeLabel;resizable=0;html=1;;align=center;verticalAlign=middle;" connectable="0" vertex="1" parent="AQTAdp-zQ0He3gd8Ozk--84">
          <mxGeometry relative="1" as="geometry">
            <mxPoint as="offset" />
          </mxGeometry>
        </mxCell>
        <mxCell id="AQTAdp-zQ0He3gd8Ozk--86" value="" style="endArrow=classic;html=1;rounded=0;entryX=1;entryY=0.5;entryDx=0;entryDy=0;strokeWidth=3;exitX=0;exitY=1;exitDx=0;exitDy=0;" edge="1" parent="1" source="AQTAdp-zQ0He3gd8Ozk--1" target="AQTAdp-zQ0He3gd8Ozk--81">
          <mxGeometry width="50" height="50" relative="1" as="geometry">
            <mxPoint x="290" y="490" as="sourcePoint" />
            <mxPoint x="400" y="490" as="targetPoint" />
          </mxGeometry>
        </mxCell>
        <mxCell id="AQTAdp-zQ0He3gd8Ozk--87" value="" style="endArrow=classic;html=1;rounded=0;entryX=1;entryY=1;entryDx=0;entryDy=0;strokeWidth=3;exitX=0;exitY=0;exitDx=0;exitDy=0;" edge="1" parent="1" source="AQTAdp-zQ0He3gd8Ozk--81" target="AQTAdp-zQ0He3gd8Ozk--56">
          <mxGeometry relative="1" as="geometry">
            <mxPoint x="545" y="695" as="sourcePoint" />
            <mxPoint x="665" y="620" as="targetPoint" />
          </mxGeometry>
        </mxCell>
        <mxCell id="AQTAdp-zQ0He3gd8Ozk--88" value="&lt;font style=&quot;font-size: 16px;&quot;&gt;true&lt;/font&gt;" style="edgeLabel;resizable=0;html=1;;align=center;verticalAlign=middle;" connectable="0" vertex="1" parent="AQTAdp-zQ0He3gd8Ozk--87">
          <mxGeometry relative="1" as="geometry">
            <mxPoint as="offset" />
          </mxGeometry>
        </mxCell>
        <mxCell id="AQTAdp-zQ0He3gd8Ozk--90" value="" style="ellipse;whiteSpace=wrap;html=1;strokeWidth=3;" vertex="1" parent="1">
          <mxGeometry x="810" y="110.00000000000011" width="170" height="100" as="geometry" />
        </mxCell>
        <mxCell id="AQTAdp-zQ0He3gd8Ozk--91" value="&lt;font style=&quot;font-size: 24px;&quot;&gt;Forward(7)&lt;/font&gt;" style="text;html=1;align=center;verticalAlign=middle;whiteSpace=wrap;rounded=0;" vertex="1" parent="1">
          <mxGeometry x="865" y="145.0000000000001" width="60" height="30" as="geometry" />
        </mxCell>
        <mxCell id="AQTAdp-zQ0He3gd8Ozk--92" value="" style="curved=1;endArrow=classic;html=1;rounded=0;exitX=1;exitY=0;exitDx=0;exitDy=0;entryX=0.5;entryY=0;entryDx=0;entryDy=0;strokeWidth=3;" edge="1" parent="1" source="AQTAdp-zQ0He3gd8Ozk--90" target="AQTAdp-zQ0He3gd8Ozk--90">
          <mxGeometry width="50" height="50" relative="1" as="geometry">
            <mxPoint x="980" y="120" as="sourcePoint" />
            <mxPoint x="1030" y="70" as="targetPoint" />
            <Array as="points">
              <mxPoint x="980" y="100" />
              <mxPoint x="960" y="50" />
              <mxPoint x="890" y="60" />
            </Array>
          </mxGeometry>
        </mxCell>
        <mxCell id="AQTAdp-zQ0He3gd8Ozk--93" value="&lt;font style=&quot;font-size: 16px;&quot;&gt;i &amp;gt; 0&lt;br&gt;&lt;/font&gt;" style="text;html=1;align=center;verticalAlign=middle;whiteSpace=wrap;rounded=0;labelBackgroundColor=default;" vertex="1" parent="1">
          <mxGeometry x="950" y="80" width="60" height="30" as="geometry" />
        </mxCell>
        <mxCell id="AQTAdp-zQ0He3gd8Ozk--96" value="&lt;font style=&quot;font-size: 16px;&quot;&gt;&amp;nbsp;i-- &lt;br&gt;&lt;/font&gt;" style="text;html=1;align=center;verticalAlign=middle;whiteSpace=wrap;rounded=0;labelBackgroundColor=default;" vertex="1" parent="1">
          <mxGeometry x="883" y="47" width="60" height="30" as="geometry" />
        </mxCell>
        <mxCell id="AQTAdp-zQ0He3gd8Ozk--102" value="v" style="endArrow=classic;html=1;rounded=0;exitX=0.5;exitY=0;exitDx=0;exitDy=0;entryX=0;entryY=1;entryDx=0;entryDy=0;strokeWidth=3;" edge="1" parent="1" source="AQTAdp-zQ0He3gd8Ozk--63" target="AQTAdp-zQ0He3gd8Ozk--90">
          <mxGeometry relative="1" as="geometry">
            <mxPoint x="545" y="455" as="sourcePoint" />
            <mxPoint x="665" y="370" as="targetPoint" />
          </mxGeometry>
        </mxCell>
        <mxCell id="AQTAdp-zQ0He3gd8Ozk--103" value="&lt;font style=&quot;font-size: 16px;&quot;&gt;true&lt;br&gt;&lt;/font&gt;" style="edgeLabel;resizable=0;html=1;;align=center;verticalAlign=middle;" connectable="0" vertex="1" parent="AQTAdp-zQ0He3gd8Ozk--102">
          <mxGeometry relative="1" as="geometry">
            <mxPoint as="offset" />
          </mxGeometry>
        </mxCell>
        <mxCell id="AQTAdp-zQ0He3gd8Ozk--104" value="" style="endArrow=classic;html=1;rounded=0;exitX=1;exitY=0.5;exitDx=0;exitDy=0;entryX=0;entryY=0.5;entryDx=0;entryDy=0;strokeWidth=3;" edge="1" parent="1" source="AQTAdp-zQ0He3gd8Ozk--63" target="AQTAdp-zQ0He3gd8Ozk--65">
          <mxGeometry relative="1" as="geometry">
            <mxPoint x="750" y="320" as="sourcePoint" />
            <mxPoint x="845" y="205" as="targetPoint" />
          </mxGeometry>
        </mxCell>
        <mxCell id="AQTAdp-zQ0He3gd8Ozk--105" value="&lt;font style=&quot;font-size: 16px;&quot;&gt;&amp;nbsp;false&amp;nbsp;&lt;/font&gt; " style="edgeLabel;resizable=0;html=1;;align=center;verticalAlign=middle;" connectable="0" vertex="1" parent="AQTAdp-zQ0He3gd8Ozk--104">
          <mxGeometry relative="1" as="geometry">
            <mxPoint as="offset" />
          </mxGeometry>
        </mxCell>
        <mxCell id="AQTAdp-zQ0He3gd8Ozk--109" value="" style="endArrow=classic;html=1;rounded=0;exitX=1;exitY=1;exitDx=0;exitDy=0;entryX=0.5;entryY=0;entryDx=0;entryDy=0;strokeWidth=3;" edge="1" parent="1" source="AQTAdp-zQ0He3gd8Ozk--90" target="AQTAdp-zQ0He3gd8Ozk--65">
          <mxGeometry relative="1" as="geometry">
            <mxPoint x="760" y="330" as="sourcePoint" />
            <mxPoint x="855" y="215" as="targetPoint" />
          </mxGeometry>
        </mxCell>
        <mxCell id="AQTAdp-zQ0He3gd8Ozk--110" value="&lt;font style=&quot;font-size: 16px;&quot;&gt;i == 0&lt;br&gt;&lt;/font&gt;" style="edgeLabel;resizable=0;html=1;;align=center;verticalAlign=middle;" connectable="0" vertex="1" parent="AQTAdp-zQ0He3gd8Ozk--109">
          <mxGeometry relative="1" as="geometry">
            <mxPoint as="offset" />
          </mxGeometry>
        </mxCell>
        <mxCell id="AQTAdp-zQ0He3gd8Ozk--111" value="" style="ellipse;whiteSpace=wrap;html=1;strokeWidth=3;" vertex="1" parent="1">
          <mxGeometry x="960" y="552.9000000000001" width="170" height="100" as="geometry" />
        </mxCell>
        <mxCell id="AQTAdp-zQ0He3gd8Ozk--112" value="&lt;font style=&quot;font-size: 24px;&quot;&gt;TurnRight&lt;br&gt;&lt;/font&gt;" style="text;html=1;align=center;verticalAlign=middle;whiteSpace=wrap;rounded=0;" vertex="1" parent="1">
          <mxGeometry x="1015" y="587.9000000000001" width="60" height="30" as="geometry" />
        </mxCell>
        <mxCell id="AQTAdp-zQ0He3gd8Ozk--113" value="" style="ellipse;whiteSpace=wrap;html=1;strokeWidth=3;" vertex="1" parent="1">
          <mxGeometry x="1210" y="552.9000000000001" width="170" height="100" as="geometry" />
        </mxCell>
        <mxCell id="AQTAdp-zQ0He3gd8Ozk--114" value="&lt;font style=&quot;font-size: 24px;&quot;&gt;TurnLeft&lt;/font&gt;" style="text;html=1;align=center;verticalAlign=middle;whiteSpace=wrap;rounded=0;" vertex="1" parent="1">
          <mxGeometry x="1265" y="587.9000000000001" width="60" height="30" as="geometry" />
        </mxCell>
        <mxCell id="AQTAdp-zQ0He3gd8Ozk--115" value="" style="endArrow=classic;html=1;rounded=0;exitX=0.5;exitY=1;exitDx=0;exitDy=0;entryX=0.5;entryY=0;entryDx=0;entryDy=0;strokeWidth=3;" edge="1" parent="1" source="AQTAdp-zQ0He3gd8Ozk--65" target="AQTAdp-zQ0He3gd8Ozk--111">
          <mxGeometry relative="1" as="geometry">
            <mxPoint x="750" y="320" as="sourcePoint" />
            <mxPoint x="845" y="205" as="targetPoint" />
          </mxGeometry>
        </mxCell>
        <mxCell id="AQTAdp-zQ0He3gd8Ozk--116" value="&lt;div style=&quot;font-size: 16px;&quot;&gt;&lt;font style=&quot;font-size: 16px;&quot;&gt;right&lt;/font&gt;&lt;/div&gt;&lt;div style=&quot;font-size: 16px;&quot;&gt;&lt;font style=&quot;font-size: 16px;&quot;&gt;&lt;font style=&quot;font-size: 16px;&quot;&gt;center&lt;/font&gt;&lt;font style=&quot;font-size: 16px;&quot;&gt;&lt;br&gt;&lt;/font&gt;&lt;/font&gt;&lt;/div&gt;" style="edgeLabel;resizable=0;html=1;;align=center;verticalAlign=middle;" connectable="0" vertex="1" parent="AQTAdp-zQ0He3gd8Ozk--115">
          <mxGeometry relative="1" as="geometry">
            <mxPoint as="offset" />
          </mxGeometry>
        </mxCell>
        <mxCell id="AQTAdp-zQ0He3gd8Ozk--118" value="" style="endArrow=classic;html=1;rounded=0;exitX=0.5;exitY=1;exitDx=0;exitDy=0;entryX=0.5;entryY=0;entryDx=0;entryDy=0;strokeWidth=3;" edge="1" parent="1" source="AQTAdp-zQ0He3gd8Ozk--65" target="AQTAdp-zQ0He3gd8Ozk--113">
          <mxGeometry relative="1" as="geometry">
            <mxPoint x="1055" y="420" as="sourcePoint" />
            <mxPoint x="1055" y="498" as="targetPoint" />
          </mxGeometry>
        </mxCell>
        <mxCell id="AQTAdp-zQ0He3gd8Ozk--119" value="&lt;div style=&quot;font-size: 16px;&quot;&gt;&lt;font style=&quot;font-size: 16px;&quot;&gt;&amp;nbsp;left&amp;nbsp; &lt;br&gt;&lt;/font&gt;&lt;/div&gt;" style="edgeLabel;resizable=0;html=1;;align=center;verticalAlign=middle;" connectable="0" vertex="1" parent="AQTAdp-zQ0He3gd8Ozk--118">
          <mxGeometry relative="1" as="geometry">
            <mxPoint as="offset" />
          </mxGeometry>
        </mxCell>
        <mxCell id="AQTAdp-zQ0He3gd8Ozk--126" style="edgeStyle=orthogonalEdgeStyle;rounded=0;orthogonalLoop=1;jettySize=auto;html=1;exitX=1;exitY=0;exitDx=0;exitDy=0;" edge="1" parent="1" source="AQTAdp-zQ0He3gd8Ozk--120">
          <mxGeometry relative="1" as="geometry">
            <mxPoint x="1104.5" y="740" as="targetPoint" />
          </mxGeometry>
        </mxCell>
        <mxCell id="AQTAdp-zQ0He3gd8Ozk--120" value="" style="ellipse;whiteSpace=wrap;html=1;strokeWidth=3;dashed=1;" vertex="1" parent="1">
          <mxGeometry x="960" y="730" width="170" height="100" as="geometry" />
        </mxCell>
        <mxCell id="AQTAdp-zQ0He3gd8Ozk--121" value="&lt;font style=&quot;font-size: 24px;&quot;&gt;RightLook&lt;/font&gt;" style="text;html=1;align=center;verticalAlign=middle;whiteSpace=wrap;rounded=0;" vertex="1" parent="1">
          <mxGeometry x="1015" y="765" width="60" height="30" as="geometry" />
        </mxCell>
        <mxCell id="AQTAdp-zQ0He3gd8Ozk--122" value="" style="endArrow=classic;html=1;rounded=0;exitX=0;exitY=0;exitDx=0;exitDy=0;entryX=0;entryY=1;entryDx=0;entryDy=0;strokeWidth=3;" edge="1" parent="1" source="AQTAdp-zQ0He3gd8Ozk--120" target="AQTAdp-zQ0He3gd8Ozk--111">
          <mxGeometry relative="1" as="geometry">
            <mxPoint x="1160" y="720" as="sourcePoint" />
            <mxPoint x="1225" y="640" as="targetPoint" />
          </mxGeometry>
        </mxCell>
        <mxCell id="AQTAdp-zQ0He3gd8Ozk--123" value="&lt;font style=&quot;font-size: 16px;&quot;&gt;&amp;gt; vision_angle&lt;/font&gt;" style="edgeLabel;resizable=0;html=1;;align=center;verticalAlign=middle;" connectable="0" vertex="1" parent="AQTAdp-zQ0He3gd8Ozk--122">
          <mxGeometry relative="1" as="geometry">
            <mxPoint as="offset" />
          </mxGeometry>
        </mxCell>
        <mxCell id="AQTAdp-zQ0He3gd8Ozk--124" value="" style="endArrow=classic;html=1;rounded=0;exitX=0;exitY=0.5;exitDx=0;exitDy=0;entryX=0.554;entryY=1.018;entryDx=0;entryDy=0;strokeWidth=3;entryPerimeter=0;" edge="1" parent="1" source="AQTAdp-zQ0He3gd8Ozk--120" target="AQTAdp-zQ0He3gd8Ozk--1">
          <mxGeometry relative="1" as="geometry">
            <mxPoint x="1115" y="735" as="sourcePoint" />
            <mxPoint x="1225" y="883" as="targetPoint" />
          </mxGeometry>
        </mxCell>
        <mxCell id="AQTAdp-zQ0He3gd8Ozk--125" value="&lt;font style=&quot;font-size: 16px;&quot;&gt;&amp;lt; vision_angle&lt;/font&gt;" style="edgeLabel;resizable=0;html=1;;align=center;verticalAlign=middle;" connectable="0" vertex="1" parent="AQTAdp-zQ0He3gd8Ozk--124">
          <mxGeometry relative="1" as="geometry">
            <mxPoint as="offset" />
          </mxGeometry>
        </mxCell>
        <mxCell id="AQTAdp-zQ0He3gd8Ozk--129" value="" style="ellipse;whiteSpace=wrap;html=1;strokeWidth=3;dashed=1;" vertex="1" parent="1">
          <mxGeometry x="1210" y="730" width="170" height="100" as="geometry" />
        </mxCell>
        <mxCell id="AQTAdp-zQ0He3gd8Ozk--130" value="&lt;font style=&quot;font-size: 24px;&quot;&gt;LeftLook&lt;/font&gt;" style="text;html=1;align=center;verticalAlign=middle;whiteSpace=wrap;rounded=0;" vertex="1" parent="1">
          <mxGeometry x="1265" y="765" width="60" height="30" as="geometry" />
        </mxCell>
        <mxCell id="AQTAdp-zQ0He3gd8Ozk--131" value="" style="endArrow=classic;html=1;rounded=0;exitX=0;exitY=0;exitDx=0;exitDy=0;strokeWidth=3;entryX=0;entryY=1;entryDx=0;entryDy=0;" edge="1" parent="1" source="AQTAdp-zQ0He3gd8Ozk--129" target="AQTAdp-zQ0He3gd8Ozk--113">
          <mxGeometry relative="1" as="geometry">
            <mxPoint x="1410" y="720" as="sourcePoint" />
            <mxPoint x="1200" y="660" as="targetPoint" />
          </mxGeometry>
        </mxCell>
        <mxCell id="AQTAdp-zQ0He3gd8Ozk--132" value="&lt;font style=&quot;font-size: 16px;&quot;&gt;&amp;gt; vision_angle&lt;/font&gt;" style="edgeLabel;resizable=0;html=1;;align=center;verticalAlign=middle;" connectable="0" vertex="1" parent="AQTAdp-zQ0He3gd8Ozk--131">
          <mxGeometry relative="1" as="geometry">
            <mxPoint as="offset" />
          </mxGeometry>
        </mxCell>
        <mxCell id="AQTAdp-zQ0He3gd8Ozk--135" value="" style="endArrow=classic;html=1;rounded=0;entryX=1;entryY=0;entryDx=0;entryDy=0;strokeWidth=3;exitX=1;exitY=1;exitDx=0;exitDy=0;" edge="1" parent="1" source="AQTAdp-zQ0He3gd8Ozk--111" target="AQTAdp-zQ0He3gd8Ozk--120">
          <mxGeometry width="50" height="50" relative="1" as="geometry">
            <mxPoint x="290" y="490" as="sourcePoint" />
            <mxPoint x="400" y="490" as="targetPoint" />
          </mxGeometry>
        </mxCell>
        <mxCell id="AQTAdp-zQ0He3gd8Ozk--136" value="" style="endArrow=classic;html=1;rounded=0;entryX=1;entryY=0;entryDx=0;entryDy=0;strokeWidth=3;exitX=1;exitY=1;exitDx=0;exitDy=0;" edge="1" parent="1" source="AQTAdp-zQ0He3gd8Ozk--113" target="AQTAdp-zQ0He3gd8Ozk--129">
          <mxGeometry width="50" height="50" relative="1" as="geometry">
            <mxPoint x="1115" y="648" as="sourcePoint" />
            <mxPoint x="1115" y="755" as="targetPoint" />
          </mxGeometry>
        </mxCell>
        <mxCell id="AQTAdp-zQ0He3gd8Ozk--138" value="" style="curved=1;endArrow=classic;html=1;rounded=0;exitX=0;exitY=0.5;exitDx=0;exitDy=0;entryX=0.5;entryY=1;entryDx=0;entryDy=0;strokeWidth=3;" edge="1" parent="1" source="AQTAdp-zQ0He3gd8Ozk--129" target="AQTAdp-zQ0He3gd8Ozk--1">
          <mxGeometry width="50" height="50" relative="1" as="geometry">
            <mxPoint x="915" y="640.4" as="sourcePoint" />
            <mxPoint x="855" y="625.4" as="targetPoint" />
            <Array as="points">
              <mxPoint x="1160" y="840" />
              <mxPoint x="950" y="870" />
              <mxPoint x="760" y="740" />
            </Array>
          </mxGeometry>
        </mxCell>
        <mxCell id="AQTAdp-zQ0He3gd8Ozk--139" value="&lt;font style=&quot;font-size: 16px;&quot;&gt;&amp;nbsp;&amp;lt; vision_angle&amp;nbsp; &lt;br&gt;&lt;/font&gt;" style="text;html=1;align=center;verticalAlign=middle;whiteSpace=wrap;rounded=0;labelBackgroundColor=default;" vertex="1" parent="1">
          <mxGeometry x="925" y="837" width="130" height="30" as="geometry" />
        </mxCell>
      </root>
    </mxGraphModel>
  </diagram>
</mxfile>
